<svg width="18" height="18" viewBox="0 0 18 18" fill="none" xmlns="http://www.w3.org/2000/svg">
<path d="M9.00019 4.90909C6.74362 4.90909 4.90918 6.74352 4.90918 9.0001C4.90918 11.2567 6.74362 13.0911 9.00019 13.0911C11.2568 13.0911 13.0912 11.2567 13.0912 9.0001C13.0912 6.74352 11.2568 4.90909 9.00019 4.90909ZM9.00019 12.4579C7.09437 12.4579 5.54239 10.9059 5.54239 9.0001C5.54239 7.09427 7.09437 5.54229 9.00019 5.54229C10.906 5.54229 12.458 7.09427 12.458 9.0001C12.458 10.9059 10.906 12.4579 9.00019 12.4579Z" fill="white"/>
<path d="M8.99984 6.67203C7.71791 6.67203 6.67188 7.71496 6.67188 8.99999C6.67188 10.285 7.7148 11.328 8.99984 11.328C10.2818 11.328 11.3278 10.285 11.3278 8.99999C11.3278 7.71496 10.2818 6.67203 8.99984 6.67203ZM8.99984 10.6948C8.06555 10.6948 7.30508 9.93428 7.30508 8.99999C7.30508 8.0657 8.06555 7.30523 8.99984 7.30523C9.93413 7.30523 10.6946 8.0657 10.6946 8.99999C10.6946 9.93428 9.93413 10.6948 8.99984 10.6948Z" fill="white"/>
<path d="M13.3762 3.50861C12.7609 3.50861 12.2617 4.00782 12.2617 4.62306C12.2617 5.23829 12.7609 5.73751 13.3762 5.73751C13.9914 5.73751 14.4906 5.23829 14.4906 4.62306C14.4906 4.00782 13.9879 3.50861 13.3762 3.50861ZM13.3762 5.02032C13.1582 5.02032 12.9789 4.84103 12.9789 4.62306C12.9789 4.40509 13.1582 4.22579 13.3762 4.22579C13.5941 4.22579 13.7734 4.40509 13.7734 4.62306C13.7734 4.84103 13.5941 5.02032 13.3762 5.02032Z" fill="white"/>
<path d="M14.7551 2.75272C15.0152 2.75272 15.2227 2.96365 15.2227 3.22029V14.734C15.2227 14.9941 15.0117 15.2015 14.7551 15.2015H3.24492C2.98477 15.2015 2.77734 14.9906 2.77734 14.734V3.22029C2.77734 2.96014 2.98828 2.75272 3.24492 2.75272H14.7551ZM14.7551 2.04959H3.24492C2.59805 2.04959 2.07422 2.57342 2.07422 3.22029V14.734C2.07422 15.3808 2.59805 15.9047 3.24492 15.9047H14.7586C15.4055 15.9047 15.9293 15.3808 15.9293 14.734V3.22029C15.9293 2.57342 15.402 2.04959 14.7551 2.04959Z" fill="white"/>
</svg>
