<svg width="18" height="18" viewBox="0 0 18 18" fill="none" xmlns="http://www.w3.org/2000/svg">
<g clip-path="url(#clip0)">
<path d="M6.77456 8.02617C6.75346 8.27929 6.45815 8.40585 6.26127 8.24765C6.14877 8.15624 6.05034 8.06484 5.9976 7.99101C5.36479 7.09453 4.83041 5.96601 4.36635 4.82695C4.17651 4.35937 3.81791 4.09921 3.35737 4.09218C2.48198 4.07812 1.66987 4.07812 0.878852 4.09218C0.506196 4.09921 0.24604 4.21523 0.101899 4.44023C-0.0422416 4.66523 -0.0352104 4.95351 0.115961 5.29453C1.21284 7.73437 2.20776 9.50624 3.34331 11.0461C4.14487 12.1289 4.94995 12.8812 5.87807 13.4156C6.85541 13.9746 7.95581 14.2488 9.23198 14.2488C9.37612 14.2488 9.93159 14.2418 10.0792 14.2348C10.4378 14.2348 10.7331 14.1117 10.7331 13.3348C10.7331 12.8883 10.7331 12.4699 10.7331 12.2238C10.7331 12.0164 10.8597 11.9144 10.9863 11.9109C11.2921 11.9074 11.6085 12.259 11.714 12.375C11.8195 12.491 11.9285 12.6141 12.0339 12.7301C12.2554 12.9797 12.5226 13.2363 12.7652 13.4824C13.3101 14.0379 13.9394 14.2945 14.6355 14.2418H14.639H17.1386C17.1456 14.2418 17.1562 14.2418 17.1632 14.2418C17.4515 14.2242 17.7011 14.0625 17.8488 13.8023C18.0246 13.4894 18.021 13.0922 17.8417 12.7441C17.6519 12.3785 17.4058 12.0656 17.1914 11.8055C16.8011 11.3379 16.3581 10.916 15.9292 10.5117C15.7781 10.3676 15.6234 10.2234 15.4722 10.0758C15.2718 9.8789 15.1734 9.73828 15.1628 9.63632C15.1523 9.53437 15.2226 9.3832 15.3808 9.16171C15.6199 8.82773 15.873 8.49374 16.1191 8.17031C16.3371 7.88203 16.5621 7.58671 16.78 7.28789L16.8292 7.22109C17.2511 6.63749 17.6871 6.03281 17.9191 5.29804C17.9859 5.0871 18.0562 4.77421 17.8874 4.49999C17.7187 4.22577 17.4093 4.14492 17.1914 4.10624C17.0859 4.08867 16.9839 4.08515 16.889 4.08515L14.1539 4.08163C13.6792 4.0746 13.3523 4.2996 13.173 4.7496C13.0289 5.1082 12.8601 5.52656 12.6667 5.92031C12.2906 6.6832 11.816 7.5621 11.1269 8.29335C10.9687 8.38124 10.7718 8.26523 10.7753 8.08242C10.7753 8.05781 10.7753 8.03671 10.7753 8.01913C10.7753 8.01562 10.7718 4.46835 10.7683 4.40507C10.7683 4.05351 10.6558 3.74765 10.241 3.74765H7.28432C6.99956 3.74765 6.77456 3.97968 6.77807 4.26445C6.80268 5.22421 6.77456 8.02265 6.77456 8.02617ZM9.6644 4.47187C9.88237 4.47187 10.0617 4.64765 10.0617 4.86913C10.0617 4.86913 10.0511 8.27929 10.0863 8.51484C10.1742 9.1582 10.9933 9.4289 11.4609 8.9789L11.6578 8.78906C12.4136 7.98749 12.9234 7.04882 13.3206 6.24023C13.5281 5.82187 13.7039 5.38945 13.8515 5.01679C13.9253 4.83046 13.9921 4.79882 14.1539 4.80234C14.1574 4.80234 14.1574 4.80234 14.1609 4.80234L16.8996 4.80585C16.9628 4.80585 17.0296 4.80585 17.0824 4.8164C17.1492 4.82695 17.1984 4.84101 17.23 4.85156C17.2652 4.86562 17.2863 4.90077 17.2828 4.93593C17.2792 4.96757 17.2687 5.01679 17.2476 5.08007C17.0472 5.70585 16.664 6.23671 16.2597 6.79921L16.2105 6.86601C15.9996 7.15781 15.7746 7.45312 15.5601 7.73788C15.3105 8.06484 15.0539 8.40585 14.8113 8.74687C14.291 9.4746 14.3367 9.95624 14.9871 10.5891C15.1417 10.7402 15.2964 10.8879 15.4511 11.032C15.8835 11.4398 16.2914 11.8266 16.6535 12.2625C16.8433 12.491 17.0613 12.7687 17.216 13.0711C17.2968 13.2293 17.2792 13.3734 17.2371 13.4473C17.2019 13.507 17.1597 13.5211 17.1386 13.5211H14.6355C14.6249 13.5211 14.6144 13.5211 14.6074 13.5211C14.1152 13.5633 13.6265 13.3523 13.2187 12.941C12.9902 12.7055 12.73 12.4559 12.5121 12.2133C12.4066 12.0937 12.2976 11.9707 12.1851 11.8512C12.1148 11.7738 11.7527 11.4398 11.4187 11.2922C11.1515 11.1762 10.8527 11.1586 10.6664 11.1586C10.4203 11.1586 10.1214 11.3484 10.1214 11.9074C10.1214 12.4699 10.1249 12.6844 10.1109 13.0852C10.1003 13.3523 10.1074 13.5281 9.65034 13.5176C8.32143 13.5809 7.20698 13.3418 6.2437 12.7898C5.40346 12.3082 4.6687 11.6191 3.93041 10.6172C2.81948 9.12656 1.84916 7.39335 0.773383 5.00273C0.759321 4.97109 0.748774 4.94296 0.741743 4.92187C0.724165 4.87265 0.759321 4.82343 0.80854 4.8164C0.833149 4.81288 0.861274 4.81288 0.892915 4.81288C1.67338 4.79882 2.47846 4.79882 3.34682 4.81288C3.46635 4.8164 3.59995 4.85156 3.7019 5.10117C4.18706 6.28593 4.74604 7.32304 5.41401 8.26523C5.58979 8.51484 5.81127 8.82421 6.13471 9.04921C6.13823 9.05273 6.14174 9.05273 6.14526 9.05624C6.66909 9.42538 7.43198 9.08789 7.48471 8.44804C7.50581 8.21249 7.50932 5.6496 7.51635 4.86913C7.51987 4.65117 7.69565 4.47539 7.91362 4.47539H9.6644V4.47187Z" fill="white"/>
</g>
<defs>
<clipPath id="clip0">
<rect width="18" height="18" fill="white"/>
</clipPath>
</defs>
</svg>
