<svg width="18" height="18" viewBox="0 0 18 18" fill="none" xmlns="http://www.w3.org/2000/svg">
<g clip-path="url(#clip0)">
<path d="M11.6187 8.10706L7.99414 6.22268C7.71289 6.07503 7.36836 6.08909 7.09766 6.25432C6.82695 6.41956 6.6582 6.71839 6.6582 7.03831V10.8176C6.6582 11.1375 6.82695 11.4364 7.10117 11.6016C7.24531 11.6895 7.40703 11.7352 7.57578 11.7352C7.72344 11.7352 7.87109 11.7 8.00117 11.6297L11.6258 9.7348C11.9281 9.57659 12.118 9.2637 12.118 8.92269C12.1109 8.57464 11.9211 8.26526 11.6187 8.10706ZM11.2883 9.09495L7.66367 10.9899C7.60391 11.0215 7.52656 11.018 7.4668 10.9828C7.40703 10.9477 7.37187 10.8809 7.37187 10.8141V7.03479C7.37187 6.96448 7.40703 6.9012 7.4668 6.86604C7.49844 6.84847 7.53359 6.83792 7.56875 6.83792C7.60039 6.83792 7.63203 6.84495 7.66016 6.85901L11.2848 8.74339C11.3516 8.77855 11.3902 8.84534 11.3937 8.91917C11.3937 8.993 11.3551 9.0598 11.2883 9.09495Z" fill="white"/>
<path d="M17.2406 3.73009C16.541 2.89689 15.3105 2.55939 12.9902 2.55939H5.00625C2.6332 2.55939 1.37812 2.9215 0.682031 3.80744C0 4.6758 0 5.86056 0 7.50236V10.4942C0 11.8442 0.1125 13.2223 0.938672 14.1645C1.70156 15.0328 2.9918 15.4406 5.00625 15.4406H12.9902C15.0012 15.4406 16.1297 15.1453 16.8855 14.4211C17.666 13.6758 17.9965 12.5016 17.9965 10.4977V7.50588C18 5.76916 17.9473 4.57033 17.2406 3.73009ZM17.2828 10.4942C17.2828 12.2836 17.0156 13.3031 16.3934 13.9008C15.7816 14.4844 14.7973 14.7235 12.9938 14.7235H5.00625C1.33594 14.7235 0.717187 13.4192 0.717187 10.4977V7.50588C0.717187 6.00822 0.717187 4.9254 1.24805 4.25392C1.79297 3.56134 2.88281 3.28009 5.00977 3.28009H12.9938C15.075 3.28009 16.1473 3.54728 16.6957 4.19767C17.2441 4.84806 17.2863 5.93087 17.2863 7.50939V10.4942H17.2828Z" fill="white"/>
</g>
<defs>
<clipPath id="clip0">
<rect width="18" height="18" fill="white"/>
</clipPath>
</defs>
</svg>
